<svg version="1.0" xmlns="http://www.w3.org/2000/svg"
 width="1024.000000pt" height="1024.000000pt" viewBox="0 0 1024.000000 1024.000000"
 preserveAspectRatio="xMidYMid meet">
<g transform="translate(0.000000,1024.000000) scale(0.100000,-0.100000)"
fill="#ffffff88" stroke="none">
<path d="M2782 9302 c-43 -13 -89 -61 -124 -129 -67 -128 -94 -279 -85 -467
20 -384 192 -717 493 -952 45 -35 157 -112 250 -170 274 -174 387 -265 497
-404 56 -70 147 -236 147 -268 0 -8 -39 -58 -87 -111 -48 -53 -89 -98 -90
-100 -2 -2 -29 20 -60 50 -106 100 -242 193 -354 243 -219 96 -555 166 -799
166 -274 0 -319 -30 -285 -189 97 -462 447 -867 875 -1013 89 -30 242 -58 321
-58 l47 0 7 -77 c38 -434 214 -713 659 -1048 88 -66 165 -129 172 -140 20 -31
-3 -69 -43 -73 -37 -4 -128 32 -225 88 -38 22 -78 40 -89 40 -10 0 -62 -23
-115 -50 -466 -245 -841 -634 -1083 -1123 -111 -225 -164 -401 -177 -585 -19
-263 107 -469 308 -501 111 -18 198 17 219 88 9 30 8 64 -5 157 -16 125 -12
183 17 212 17 16 45 10 51 -10 27 -99 40 -128 67 -154 27 -26 37 -29 99 -29
59 0 72 3 95 25 69 64 89 172 61 321 -23 123 -21 194 10 291 54 171 161 349
306 511 101 111 119 106 82 -23 -59 -203 -105 -497 -124 -795 -6 -93 -22 -237
-35 -320 -51 -322 -57 -388 -61 -634 -1 -134 -4 -244 -6 -245 -2 -1 -35 -14
-74 -30 -97 -37 -233 -119 -305 -184 -111 -100 -189 -234 -189 -323 0 -52 30
-82 106 -106 52 -16 98 -18 384 -18 279 1 349 4 495 24 291 38 416 71 460 121
19 21 20 41 26 294 5 260 7 274 33 353 53 164 165 281 307 324 58 18 89 21
182 17 102 -3 118 -6 181 -36 39 -18 89 -48 112 -67 96 -79 171 -245 180 -400
3 -44 6 -166 7 -271 2 -176 4 -194 22 -214 30 -33 67 -49 167 -71 235 -51 520
-79 813 -79 287 0 425 24 454 78 22 41 13 106 -26 183 -71 144 -255 297 -448
373 -38 16 -73 31 -77 35 -4 3 -9 114 -12 246 -5 242 -14 337 -60 610 -14 83
-30 231 -36 330 -17 293 -60 583 -115 793 -14 52 -25 98 -25 103 0 45 145
-102 241 -245 76 -113 122 -203 159 -315 35 -105 39 -196 14 -330 -20 -105
-14 -172 20 -240 32 -63 74 -91 136 -91 81 0 128 46 155 149 20 80 64 79 86
-2 8 -31 7 -67 -7 -162 -16 -108 -16 -127 -3 -160 27 -71 103 -101 215 -83
101 16 173 65 235 161 54 84 73 177 66 326 -10 198 -56 359 -172 596 -201 412
-507 762 -880 1004 -115 75 -293 171 -317 171 -7 0 -72 -29 -143 -65 -147 -75
-188 -81 -214 -33 -15 25 -14 29 9 53 14 15 77 66 140 113 371 277 541 486
633 778 26 82 57 261 57 328 l0 36 53 0 c80 0 234 26 314 54 237 81 469 253
629 465 114 152 216 379 254 564 29 144 -24 177 -285 177 -197 0 -399 -31
-613 -96 -200 -60 -351 -144 -523 -289 l-86 -73 -56 66 c-31 37 -69 80 -86 96
-17 17 -31 37 -31 46 0 29 80 183 130 250 105 140 237 250 509 420 185 115
282 189 377 284 213 215 332 475 365 798 34 327 -83 643 -239 643 -37 0 -48
-5 -72 -32 -45 -50 -53 -98 -46 -270 18 -423 -66 -696 -271 -883 -70 -64 -129
-104 -141 -96 -5 3 -12 43 -15 89 -9 115 -33 233 -69 347 -66 205 -127 280
-230 280 -54 0 -85 -21 -109 -74 -27 -59 -24 -141 11 -286 87 -359 60 -532
-105 -689 -76 -72 -95 -79 -95 -37 0 42 -50 197 -86 270 -74 148 -142 216
-223 224 -88 8 -141 -41 -141 -132 0 -25 16 -98 36 -163 58 -189 64 -213 70
-303 8 -101 -8 -176 -62 -292 l-36 -76 -68 29 c-86 36 -216 74 -333 96 -130
24 -504 24 -634 0 -125 -24 -255 -62 -332 -98 -35 -16 -65 -28 -66 -27 -2 2
-16 30 -33 64 -95 190 -96 299 -5 579 59 184 55 273 -17 310 -67 35 -146 11
-211 -64 -76 -88 -179 -333 -179 -428 0 -12 -4 -23 -9 -23 -5 0 -43 32 -85 71
-167 156 -195 330 -109 674 46 185 41 289 -17 347 -56 55 -171 28 -224 -53
-72 -107 -156 -422 -156 -581 0 -26 -4 -50 -10 -53 -19 -12 -77 30 -165 119
-101 102 -145 170 -186 286 -53 148 -63 230 -63 515 -1 276 -4 293 -53 337
-23 21 -69 30 -101 20z m1553 -2981 c190 -66 357 -283 422 -547 24 -100 24
-294 0 -357 -27 -68 -57 -81 -167 -74 -177 13 -322 78 -446 202 -68 67 -89 96
-127 175 -56 117 -71 190 -65 323 3 76 10 115 27 152 61 139 189 183 356 126z
m1823 -3 c89 -42 135 -148 136 -308 0 -322 -224 -586 -556 -654 -202 -42 -260
-7 -274 167 -21 247 108 565 288 708 137 109 291 142 406 87z m-913 -2203
c103 -26 183 -73 265 -155 121 -121 170 -238 170 -408 0 -356 -319 -610 -681
-542 -148 28 -309 150 -374 285 -116 236 -75 486 110 670 139 139 331 196 510
150z"/>
<path d="M4350 5968 c-73 -49 -108 -182 -77 -289 34 -117 120 -199 207 -199
91 0 139 70 140 202 0 209 -149 367 -270 286z"/>
<path d="M5749 5967 c-140 -94 -180 -367 -67 -462 102 -86 277 50 295 230 18
175 -113 310 -228 232z"/>
</g>
</svg>
